<?xml version="1.0" encoding="UTF-8" standalone="no"?>
<svg width="64px" height="64px" viewBox="0 0 129.38753 114.98444" xmlns="http://www.w3.org/2000/svg">
<g transform="matrix(1.25,0,0,-1.25,64.84264,69.75625)">
<path d="m0,0c0,0 12.085,51.949 47.109,55.805 0,0 11.249-2.631-1.718-22.95 0,0-1.732-11.671 0-18.588 0,0 1.297-5.186-3.89-10.373s-1.084-1.083-1.084-1.083 30.909-20.101-13.184-38.69c0,0-17.289-6.051-27.233,35.879" fill="#ecbb53"/>
</g>
<g transform="matrix(1.25,0,0,-1.25,64.84264,69.75625)">
<path d="m0,0c7.313,13.587 16.396,30.469 29.145,39.559 2.168,1.546 7.331,5.408 10.112,3.164 2.91-2.354-.365-6.387-1.445-8.815-4.606-10.352 4.98-27.133-9.71-31.786 1.983.629 8.35-4.698 9.674-5.998 3.584-3.515 7.474-3.938 6.924-8.833-.887-7.884-7.512-13.716-15.939-17.105-14.842-5.976-23.653,17.394-28.761,29.814" fill="#f8db7d"/>
</g>
<g transform="matrix(1.25,0,0,-1.25,64.54364,69.75625)">
<path d="m0,0c0,0-12.084,51.949-47.108,55.805 0,0-11.249-2.631 1.718-22.95 0,0 1.731-11.671 0-18.588 0,0-1.295-5.186 3.891-10.373l1.082-1.083c0,0-30.908-20.101 13.185-38.69 0,0 17.289-6.051 27.232,35.879" fill="#ecbb53"/>
</g>
<g transform="matrix(1.25,0,0,-1.25,64.54364,69.75625)">
<path d="m0,0c-7.313,13.587-16.396,30.469-29.144,39.559-2.168,1.546-7.332,5.408-10.112,3.164-2.909-2.354.366-6.387 1.445-8.815 4.605-10.352-4.98-27.133 9.709-31.786-1.982.629-8.346-4.698-9.674-5.998-3.583-3.515-7.473-3.938-6.922-8.833 .885-7.884 7.51-13.716 15.938-17.105 14.842-5.976 23.653,17.394 28.76,29.814" fill="#f8db7d"/>
</g>
<g transform="matrix(1.25,0,0,-1.25,67.95189,74.41938)">
<path d="m0,0c0-11.938-1.256-21.614-2.809-21.614s-2.81,9.676-2.81,21.614 1.257,21.613 2.81,21.613 2.809-9.677 2.809-21.613" fill="#373535"/>
</g>
<g transform="matrix(1.25,0,0,-1.25,65.49452,50.26163)">
<path d="m0,0c0,0-.521,12.504 6.394,19.422" fill="none" stroke="#373535" stroke-width=".25"/>
</g>
<g transform="matrix(1.25,0,0,-1.25,63.25451,50.26163)">
<path d="m0,0c0,0 .521,12.504-6.395,19.422" fill="none" stroke="#373535" stroke-width=".25"/>
</g>
</svg>
