<?xml version="1.0" encoding="UTF-8" standalone="no"?>
<svg
   xmlns:dc="http://purl.org/dc/elements/1.1/"
   xmlns:cc="http://creativecommons.org/ns#"
   xmlns:rdf="http://www.w3.org/1999/02/22-rdf-syntax-ns#"
   xmlns:svg="http://www.w3.org/2000/svg"
   xmlns="http://www.w3.org/2000/svg"
   xmlns:sodipodi="http://sodipodi.sourceforge.net/DTD/sodipodi-0.dtd"
   xmlns:inkscape="http://www.inkscape.org/namespaces/inkscape"
   viewBox="0 0 745.7143 1061.4286"
   id="svg2"
   version="1.1"
   inkscape:version="0.91 r13725"
   sodipodi:docname="clouds.svg"
   width="745.71429"
   height="1061.4286">
  <metadata
     id="metadata50">
    <rdf:RDF>
      <cc:Work
         rdf:about="">
        <dc:format>image/svg+xml</dc:format>
        <dc:type
           rdf:resource="http://purl.org/dc/dcmitype/StillImage" />
        <dc:title></dc:title>
      </cc:Work>
    </rdf:RDF>
  </metadata>
  <sodipodi:namedview
     pagecolor="#ffffff"
     bordercolor="#666666"
     borderopacity="1"
     objecttolerance="10"
     gridtolerance="10"
     guidetolerance="10"
     inkscape:pageopacity="0"
     inkscape:pageshadow="2"
     inkscape:window-width="885"
     inkscape:window-height="747"
     id="namedview48"
     showgrid="false"
     fit-margin-top="0"
     fit-margin-left="0"
     fit-margin-right="0"
     fit-margin-bottom="0"
     inkscape:zoom="0.89702957"
     inkscape:cx="191.90135"
     inkscape:cy="1069.3617"
     inkscape:window-x="0"
     inkscape:window-y="23"
     inkscape:window-maximized="0"
     inkscape:current-layer="svg2" />
  <defs
     id="defs4">
    <filter
       id="filter4481">
      <feGaussianBlur
         stdDeviation="4.13418"
         id="feGaussianBlur7" />
    </filter>
    <linearGradient
       gradientUnits="userSpaceOnUse"
       id="linearGradient4427"
       x1="494.28571"
       x2="435.71429"
       y1="65.219322"
       y2="1199.505"
       gradientTransform="matrix(1.0134544,0,0,1,-7.3773132,0.98517)">
      <stop
         offset="0"
         stop-color="#00a8f0"
         id="stop10" />
      <stop
         offset="1"
         stop-color="#00a8f0"
         stop-opacity="0"
         id="stop12" />
    </linearGradient>
  </defs>
  <path
     d="M -3.1577655,0 747.75725,0 a 2.4161867,2.38411 0 0 1 2.41619,2.38411 l 0,1056.66039 a 2.4161867,2.38411 0 0 1 -2.41619,2.3841 l -750.9150155,0 a 2.4161867,2.38411 0 0 1 -2.4161867,-2.3841 l 0,-1056.66039 A 2.4161867,2.38411 0 0 1 -3.1577655,0"
     id="path14"
     inkscape:connector-curvature="0"
     style="fill:url(#linearGradient4427)" />
  <path
     d="m 184.83234,31.52771 c -10.5505,0 -19.36949,6.52217 -21.54261,15.222 -22.62942,0.27019 -42.26204,5.18029 -52.74836,12.3679 -3.17588,-2.18976 -7.06411,-3.48455 -11.26875,-3.48455 -10.68831,0 -19.35584,8.3352 -19.35584,18.60338 0,1.23133 0.12647,2.43453 0.36446,3.59918 -15.87993,5.76577 -26.03435,14.56816 -26.03435,24.4263 0,17.35467 31.46631,31.44122 70.2425,31.44122 1.13893,0 2.27265,-0.0103 3.39836,-0.0344 -0.44877,2.18669 -0.68952,4.48653 -0.68952,6.85449 0,14.75145 9.28117,26.71873 20.71518,26.71873 5.82344,0 11.07993,-3.1073 14.84441,-8.10386 4.19733,3.74721 9.6186,6.00627 15.54377,6.00627 9.57847,0 17.85768,-5.90739 21.73961,-14.45405 9.32182,2.21082 19.7344,3.45019 30.72309,3.45019 39.77045,0 72.04511,-16.19442 72.04511,-36.15227 0,-14.29772 -16.56479,-26.66496 -40.58324,-32.53016 3.48995,-3.66895 5.46692,-7.84766 5.46691,-12.2762 0,-14.60682 -21.48891,-26.45512 -47.96112,-26.45512 -4.55869,0 -8.96166,0.35209 -13.1403,1.00869 -1.73003,-9.18907 -10.81359,-16.20777 -21.75931,-16.20777 z"
     id="path16"
     inkscape:connector-curvature="0"
     style="fill:#ffffff" />
  <path
     d="m 538.81049,105.49021 c -10.5505,0 -19.36949,6.52217 -21.54261,15.222 -22.62942,0.27019 -42.26204,5.18029 -52.74836,12.3679 -3.17588,-2.18976 -7.06411,-3.48455 -11.26875,-3.48455 -10.68831,0 -19.35584,8.3352 -19.35584,18.60338 0,1.23133 0.12647,2.43453 0.36446,3.59918 -15.87993,5.76577 -26.03435,14.56816 -26.03435,24.4263 0,17.35468 31.46631,31.44123 70.2425,31.44123 1.13893,0 2.27265,-0.0103 3.39836,-0.0344 -0.44877,2.18669 -0.68952,4.48653 -0.68952,6.85449 0,14.75145 9.28117,26.71873 20.71518,26.71873 5.82344,0 11.07993,-3.1073 14.84441,-8.10386 4.19733,3.74721 9.6186,6.00627 15.54377,6.00627 9.57847,0 17.85768,-5.90739 21.73961,-14.45405 9.32182,2.21082 19.7344,3.45019 30.72309,3.45019 39.77045,0 72.04511,-16.19442 72.04511,-36.15227 0,-14.29773 -16.56479,-26.66497 -40.58324,-32.53017 3.48995,-3.66895 5.46692,-7.84766 5.46691,-12.2762 0,-14.60682 -21.48891,-26.45512 -47.96112,-26.45512 -4.55869,0 -8.96166,0.35209 -13.1403,1.00869 -1.73003,-9.18907 -10.81359,-16.20777 -21.75931,-16.20777 z"
     id="path18"
     inkscape:connector-curvature="0"
     style="fill:#ffffff" />
  <path
     d="m 181.07747,273.37396 c 8.50346,3.05423 13.40665,11.74546 12.21731,20.56225 18.14744,6.80521 32.31111,17.10967 38.33319,26.90984 3.2999,-1.14149 6.8714,-1.23447 10.26025,-0.0173 8.61452,3.09413 12.78278,13.44781 9.3118,23.11155 -0.41623,1.15885 -0.92488,2.25461 -1.51039,3.28181 10.84984,10.0234 16.05857,21.2472 12.7262,30.52504 -5.86645,16.33309 -35.98927,20.48133 -67.24197,9.25612 -0.91796,-0.3297 -1.82822,-0.66764 -2.72739,-1.01613 -0.37747,2.18788 -0.96086,4.42203 -1.76131,6.6506 -4.98647,13.8831 -16.5122,22.45914 -25.72775,19.14914 -4.69355,-1.68581 -7.87979,-6.13188 -9.22488,-11.92409 -4.64962,2.31156 -9.78267,2.86825 -14.55822,1.15299 -7.72002,-2.77284 -12.39598,-10.72922 -12.63568,-19.89654 -8.2605,-0.61787 -17.07174,-2.46576 -25.92837,-5.64685 -32.05405,-11.51303 -52.59243,-36.09726 -45.84603,-54.88028 4.8331,-13.45609 22.36446,-20.30003 43.7054,-18.86694 -1.5726,-4.46327 -1.75345,-8.9683 -0.25645,-13.13615 4.93758,-13.74698 26.26225,-18.67706 47.59824,-11.01369 3.6742,1.31968 7.10387,2.92564 10.2498,4.75326 4.50057,-8.14733 14.19425,-12.1233 23.01625,-8.95465 z"
     id="path20"
     inkscape:connector-curvature="0"
     style="fill:#ffffff" />
  <path
     d="m 130.94814,582.63307 c -5.76016,0 -10.57498,3.63868 -11.76142,8.49227 -12.35478,0.15074 -23.07342,2.89006 -28.79854,6.89999 -1.7339,-1.22166 -3.85672,-1.94401 -6.15229,-1.94401 -5.8354,0 -10.56753,4.65016 -10.56753,10.37873 0,0.68695 0.06905,1.35821 0.19898,2.00796 -8.66982,3.21669 -14.21373,8.1275 -14.21373,13.6273 0,9.68209 17.17937,17.5409 38.34965,17.5409 0.62181,0 1.24077,-0.006 1.85537,-0.0192 -0.24501,1.21994 -0.37645,2.50301 -0.37645,3.82408 0,8.22976 5.06715,14.90624 11.30967,14.90624 3.17937,0 6.04921,-1.73355 8.10447,-4.5211 2.29157,2.09055 5.25137,3.35087 8.48628,3.35087 5.22947,0 9.7496,-3.29571 11.86898,-8.06384 5.08934,1.2334 10.7742,1.92484 16.7736,1.92484 21.7131,0 39.3338,-9.03478 39.3338,-20.16916 0,-7.97663 -9.04373,-14.87625 -22.15686,-18.14841 1.90538,-2.04689 2.98473,-4.37817 2.98472,-6.84883 0,-8.14907 -11.7321,-14.75917 -26.18489,-14.75917 -2.48886,0 -4.89271,0.19643 -7.17409,0.56274 -0.94452,-5.12653 -5.90379,-9.04223 -11.87972,-9.04223 z"
     id="path22"
     inkscape:connector-curvature="0"
     style="fill:#ffffff" />
  <path
     d="m 538.2755,365.43338 c -10.38793,1.845 -17.93047,9.80888 -18.54873,18.75468 -22.23348,4.22331 -40.70493,12.49097 -49.77274,21.40161 -3.50987,-1.60064 -7.56461,-2.19553 -11.70447,-1.46025 -10.52361,1.8691 -17.59997,11.59159 -15.80434,21.70154 0.21533,1.21236 0.55026,2.3749 0.98825,3.47999 -14.62696,8.4539 -23.0856,18.8964 -21.36168,28.60263 3.03488,17.08726 36.47969,25.45412 74.65837,18.67319 1.12138,-0.19916 2.23582,-0.4076 3.33998,-0.62812 -0.0595,2.23147 0.10568,4.53798 0.51978,6.86945 2.57964,14.52414 13.81055,24.68399 25.06837,22.68448 5.73371,-1.01837 10.36582,-4.99701 13.19853,-10.57488 4.78794,2.95547 10.52072,4.23168 16.35459,3.19552 9.43087,-1.67502 16.54946,-8.9392 18.87699,-18.03301 9.56479,0.54662 20.03366,-0.054 30.85302,-1.97563 39.15762,-6.9548 68.10298,-28.54366 64.61288,-48.19398 -2.50029,-14.07741 -20.97253,-23.35734 -45.64655,-24.93197 2.79457,-4.22271 4.01033,-8.68275 3.23589,-13.04305 -2.55435,-14.38174 -25.78409,-22.28963 -51.84839,-17.66034 -4.48844,0.79719 -6.76344,13.16629 -10.76287,14.5435 -3.31029,-8.74494 -15.47982,-25.31948 -26.25688,-23.40536 z"
     id="path24"
     inkscape:connector-curvature="0"
     style="fill:#ffffff" />
  <path
     d="m 585.94814,642.63306 c -5.76016,0 -10.57498,3.63868 -11.76142,8.49227 -12.35478,0.15074 -23.07342,2.89006 -28.79854,6.89999 -1.7339,-1.22166 -3.85672,-1.94401 -6.15229,-1.94401 -5.8354,0 -10.56753,4.65016 -10.56753,10.37873 0,0.68695 0.0691,1.35821 0.19898,2.00796 -8.66982,3.21669 -14.21373,8.1275 -14.21373,13.6273 0,9.68209 17.17937,17.5409 38.34965,17.5409 0.62181,0 1.24077,-0.006 1.85537,-0.0192 -0.24501,1.21994 -0.37645,2.50301 -0.37645,3.82408 0,8.22976 5.06715,14.90624 11.30967,14.90624 3.17937,0 6.04921,-1.73355 8.10447,-4.5211 2.29157,2.09055 5.25137,3.35087 8.48628,3.35087 5.22947,0 9.7496,-3.29571 11.86898,-8.06384 5.08934,1.2334 10.7742,1.92484 16.7736,1.92484 21.7131,0 39.3338,-9.03478 39.3338,-20.16916 0,-7.97663 -9.04373,-14.87625 -22.15686,-18.14841 1.90538,-2.04689 2.98473,-4.37817 2.98472,-6.84883 0,-8.14907 -11.7321,-14.75917 -26.18489,-14.75917 -2.48886,0 -4.89271,0.19643 -7.17409,0.56274 -0.94452,-5.12653 -5.90379,-9.04223 -11.87972,-9.04223 z"
     id="path26"
     inkscape:connector-curvature="0"
     style="fill:#ffffff" />
  <path
     d="m 414.31955,725.53477 c -5.65269,1.10748 -9.67808,5.60401 -9.9092,10.59515 -12.09529,2.52334 -22.08727,7.27239 -26.9346,12.30825 -1.93644,-0.86549 -4.15854,-1.16622 -6.41128,-0.72486 -5.72652,1.12196 -9.4763,6.59519 -8.37488,12.21688 0.13207,0.67413 0.3289,1.31959 0.58133,1.93224 -7.8896,4.82359 -12.3859,10.70869 -11.32847,16.10587 1.86154,9.50145 20.23138,13.91062 41.00668,9.84028 0.61021,-0.11955 1.21651,-0.24422 1.81707,-0.37553 -0.006,1.24428 0.11182,2.52869 0.36581,3.82511 1.58231,8.07621 7.83859,13.65389 13.96464,12.45366 3.12005,-0.61129 5.60304,-2.86427 7.084,-5.99497 2.65076,1.61095 5.79766,2.27869 8.97221,1.65673 5.13191,-1.00546 8.93405,-5.10875 10.09713,-10.1954 5.23153,0.23187 10.94327,-0.18259 16.83074,-1.33608 21.30799,-4.1747 36.86285,-16.42879 34.72208,-27.35543 -1.53364,-7.82781 -11.7352,-12.85989 -25.2328,-13.54979 1.47628,-2.37504 2.08726,-4.87035 1.61223,-7.29491 -1.56679,-7.99703 -14.35091,-12.22811 -28.53405,-9.44933 -2.44242,0.47853 -4.76366,1.13347 -6.93204,1.93158 -1.91256,-4.84928 -7.53216,-7.73842 -13.3966,-6.58945 z"
     id="path28"
     inkscape:connector-curvature="0"
     style="fill:#ffffff" />
  <path
     d="m 183.091,766.91878 c -5.76016,0 -10.57498,3.63868 -11.76142,8.49227 -12.35478,0.15074 -23.07342,2.89006 -28.79854,6.89999 -1.7339,-1.22166 -3.85672,-1.94401 -6.15229,-1.94401 -5.8354,0 -10.56753,4.65016 -10.56753,10.37873 0,0.68695 0.0691,1.35821 0.19898,2.00796 -8.66982,3.21669 -14.21373,8.1275 -14.21373,13.6273 0,9.68209 17.17937,17.5409 38.34965,17.5409 0.62181,0 1.24077,-0.006 1.85537,-0.0192 -0.24501,1.21994 -0.37645,2.50301 -0.37645,3.82408 0,8.22976 5.06715,14.90624 11.30967,14.90624 3.17937,0 6.04921,-1.73355 8.10447,-4.5211 2.29157,2.09055 5.25137,3.35087 8.48628,3.35087 5.22947,0 9.7496,-3.29571 11.86898,-8.06384 5.08934,1.2334 10.7742,1.92484 16.7736,1.92484 21.7131,0 39.3338,-9.03478 39.3338,-20.16916 0,-7.97663 -9.04373,-14.87625 -22.15686,-18.14841 1.90538,-2.04689 2.98473,-4.37817 2.98472,-6.84883 0,-8.14907 -11.7321,-14.75917 -26.18489,-14.75917 -2.48886,0 -4.89271,0.19643 -7.17409,0.56274 -0.94452,-5.12653 -5.90379,-9.04223 -11.87972,-9.04223 z"
     id="path30"
     inkscape:connector-curvature="0"
     style="fill:#ffffff" />
  <path
     d="m 365.78767,563.44402 c -5.5572,-1.51558 -11.15976,0.72803 -13.58145,5.09843 -11.95911,-3.1053 -23.02083,-3.28275 -29.5993,-0.92048 -1.35137,-1.63483 -3.20933,-2.89027 -5.42401,-3.49427 -5.62979,-1.53539 -11.4187,1.70583 -12.92598,7.23255 -0.18075,0.66274 -0.29075,1.32852 -0.33636,1.98956 -9.21069,0.82218 -15.85137,4.10127 -17.29845,9.40728 -2.54751,9.34093 11.95876,21.44299 32.38309,27.01322 0.5999,0.16361 1.19857,0.3209 1.79504,0.46968 -0.55736,1.11249 -1.02177,2.31577 -1.36936,3.59029 -2.16538,7.93978 0.96654,15.71425 6.9891,17.35676 3.06735,0.83654 6.29219,-0.0808 9.00848,-2.22939 1.66077,2.61984 4.18467,4.61452 7.30559,5.46568 5.04521,1.37595 10.27322,-0.61432 13.57249,-4.6568 4.58549,2.52903 9.88811,4.69188 15.67612,6.27042 20.94802,5.71305 40.32504,1.63289 43.25466,-9.10916 2.09878,-7.69557 -4.81089,-16.73162 -16.60102,-23.33875 2.37682,-1.47343 4.03153,-3.43857 4.68159,-5.82218 2.14415,-7.86193 -7.43535,-17.32602 -21.37888,-21.12877 -2.40117,-0.65486 -4.772,-1.09784 -7.06937,-1.34471 0.43763,-5.19441 -3.31662,-10.277 -9.08198,-11.84936 z"
     id="path32"
     inkscape:connector-curvature="0"
     style="fill:#ffffff" />
  <path
     d="m 563.14548,847.16048 c -5.65269,1.10748 -9.67808,5.60401 -9.9092,10.59515 -12.09529,2.52334 -22.08727,7.27239 -26.9346,12.30825 -1.93644,-0.86549 -4.15854,-1.16622 -6.41128,-0.72486 -5.72652,1.12196 -9.4763,6.59519 -8.37488,12.21688 0.13207,0.67413 0.3289,1.31959 0.58133,1.93224 -7.8896,4.82359 -12.3859,10.70869 -11.32847,16.10587 1.86154,9.50145 20.23138,13.91062 41.00668,9.84028 0.61021,-0.11955 1.21651,-0.24422 1.81707,-0.37553 -0.006,1.24428 0.11182,2.52869 0.36581,3.82511 1.58231,8.07621 7.83859,13.65389 13.96464,12.45366 3.12005,-0.61129 5.60304,-2.86427 7.084,-5.99497 2.65076,1.61095 5.79766,2.27869 8.97221,1.65673 5.13191,-1.00546 8.93405,-5.10875 10.09713,-10.1954 5.23153,0.23187 10.94327,-0.18259 16.83074,-1.33608 21.30799,-4.1747 36.86285,-16.42879 34.72208,-27.35543 -1.53364,-7.82781 -11.7352,-12.85989 -25.2328,-13.54979 1.47628,-2.37504 2.08726,-4.87035 1.61223,-7.29491 -1.56679,-7.99703 -14.35091,-12.22811 -28.53405,-9.44933 -2.44242,0.47853 -4.76366,1.13347 -6.93204,1.93158 -1.91256,-4.84928 -7.53216,-7.73842 -13.3966,-6.58945 z"
     id="path34"
     inkscape:connector-curvature="0"
     style="opacity:0.28000004;fill:#ffffff" />
  <path
     d="m 293.14548,874.30333 c -5.65269,1.1075 -9.67808,5.604 -9.9092,10.5952 -12.09529,2.5233 -22.08727,7.2724 -26.9346,12.3082 -1.93644,-0.8655 -4.15854,-1.1662 -6.41128,-0.7248 -5.72652,1.1219 -9.4763,6.5951 -8.37488,12.2168 0.13207,0.6742 0.3289,1.3196 0.58133,1.9323 -7.8896,4.8236 -12.3859,10.7087 -11.32847,16.1058 1.86154,9.5015 20.23138,13.9107 41.00668,9.8403 0.61021,-0.1195 1.21651,-0.2442 1.81707,-0.3755 -0.006,1.2443 0.11182,2.5287 0.36581,3.8251 1.58231,8.0762 7.83859,13.6539 13.96464,12.4537 3.12005,-0.6113 5.60304,-2.8643 7.084,-5.995 2.65076,1.6109 5.79766,2.2787 8.97221,1.6567 5.13191,-1.0054 8.93405,-5.1087 10.09713,-10.1954 5.23153,0.2319 10.94327,-0.1826 16.83074,-1.3361 21.30799,-4.1747 36.86285,-16.4287 34.72208,-27.3554 -1.53364,-7.8278 -11.7352,-12.8599 -25.2328,-13.5498 1.47628,-2.375 2.08726,-4.8703 1.61223,-7.2949 -1.56679,-7.997 -14.35091,-12.2281 -28.53405,-9.4493 -2.44242,0.4785 -4.76366,1.1335 -6.93204,1.9316 -1.91256,-4.8493 -7.53216,-7.7385 -13.3966,-6.5895 z"
     id="path36"
     inkscape:connector-curvature="0"
     style="opacity:0.28000004;fill:#ffffff" />
  <path
     d="m 98.85976,858.58904 c -5.65269,1.1075 -9.67808,5.604 -9.9092,10.5952 -12.09529,2.5233 -22.08727,7.2724 -26.9346,12.3082 -1.93644,-0.8655 -4.15854,-1.1662 -6.41128,-0.7248 -5.72652,1.1219 -9.4763,6.5951 -8.37488,12.2168 0.13207,0.6742 0.3289,1.3196 0.58133,1.9323 -7.8896,4.8236 -12.3859,10.7087 -11.32847,16.1058 1.86154,9.5015 20.23138,13.9107 41.00668,9.8403 0.61021,-0.1195 1.21651,-0.2442 1.81707,-0.3755 -0.0059,1.2443 0.11182,2.5287 0.36581,3.8251 1.58231,8.0762 7.83859,13.6539 13.96464,12.4537 3.12005,-0.6113 5.60304,-2.8643 7.084,-5.995 2.65076,1.6109 5.79766,2.2787 8.97221,1.6567 5.13191,-1.0054 8.93405,-5.1087 10.09713,-10.1954 5.23153,0.2319 10.94327,-0.1826 16.83074,-1.3361 21.30799,-4.1747 36.86285,-16.4287 34.72208,-27.3554 -1.53364,-7.8278 -11.7352,-12.8599 -25.2328,-13.5498 1.47628,-2.375 2.08726,-4.8703 1.61223,-7.2949 -1.56679,-7.997 -14.35091,-12.2281 -28.53405,-9.4493 -2.44242,0.4785 -4.76366,1.1335 -6.93204,1.9316 -1.91256,-4.8493 -7.53216,-7.7385 -13.3966,-6.5895 z"
     id="path38"
     inkscape:connector-curvature="0"
     style="opacity:0.28000004;fill:#ffffff" />
  <path
     d="m 408.33148,235.04391 c -10.60977,2.41604 -18.16519,12.22525 -18.59899,23.11366 -22.70214,5.50464 -41.45651,15.86491 -50.55465,26.85061 -3.6346,-1.8881 -7.80534,-2.54409 -12.0336,-1.58116 -10.74834,2.44745 -17.78646,14.38734 -15.71916,26.65121 0.24789,1.47079 0.61732,2.87874 1.09113,4.21535 -14.80832,10.52279 -23.24762,23.36127 -21.26288,35.13516 3.494,20.72774 37.97311,30.3465 76.96712,21.46684 1.14533,-0.26069 2.28332,-0.53273 3.41054,-0.81917 -0.0111,2.71447 0.20988,5.51641 0.68661,8.34454 2.9699,17.61841 14.71256,29.78629 26.21081,27.16802 5.85615,-1.33357 10.51656,-6.24853 13.29624,-13.07822 4.97533,3.51421 10.88187,4.97102 16.84031,3.61413 9.63229,-2.19331 16.76869,-11.14474 18.95172,-22.2415 9.81927,0.5059 20.53988,-0.39834 31.59031,-2.91472 39.99384,-9.1072 69.1894,-35.83958 65.17131,-59.67641 -2.87856,-17.07651 -22.02629,-28.05415 -47.36049,-29.55919 2.77089,-5.18111 3.91767,-10.62466 3.02606,-15.91398 -2.94077,-17.44563 -26.93581,-26.67587 -53.55674,-20.61386 -4.58427,1.04386 -8.9411,2.47276 -13.01102,4.21383 -3.58977,-10.57885 -14.13742,-16.88171 -25.14463,-14.37514 z"
     transform="matrix(0.74106,0,0,0.70003,73.56346,122.75421)"
     id="path40"
     inkscape:connector-curvature="0"
     style="opacity:0.28000004;fill:#ffffff;filter:url(#filter4481)" />
  <path
     d="m 261.9029,385.75819 c -10.60977,2.41604 -18.16519,12.22525 -18.59899,23.11366 -22.70214,5.50464 -41.45651,15.86491 -50.55465,26.85061 -3.6346,-1.8881 -7.80534,-2.54409 -12.0336,-1.58116 -10.74834,2.44745 -17.78646,14.38734 -15.71916,26.65121 0.24789,1.47079 0.61732,2.87874 1.09113,4.21535 -14.80832,10.52279 -23.24762,23.36127 -21.26288,35.13516 3.494,20.72774 37.97311,30.3465 76.96712,21.46684 1.14533,-0.26069 2.28332,-0.53273 3.41054,-0.81917 -0.0111,2.71447 0.20988,5.51641 0.68661,8.34454 2.9699,17.61841 14.71256,29.78629 26.21081,27.16802 5.85615,-1.33357 10.51656,-6.24853 13.29624,-13.07822 4.97533,3.51421 10.88187,4.97102 16.84031,3.61413 9.63229,-2.19331 16.76869,-11.14474 18.95172,-22.2415 9.81927,0.5059 20.53988,-0.39834 31.59031,-2.91472 39.99384,-9.1072 69.1894,-35.83958 65.17131,-59.67641 -2.87856,-17.07651 -22.02629,-28.05415 -47.36049,-29.55919 2.77089,-5.18111 3.91767,-10.62466 3.02606,-15.91398 -2.94077,-17.44563 -26.93581,-26.67587 -53.55674,-20.61386 -4.58427,1.04386 -8.9411,2.47276 -13.01102,4.21383 -3.58977,-10.57885 -14.13742,-16.88171 -25.14463,-14.37514 z"
     transform="matrix(0.68477,0,0,0.60005,2.35486,206.47981)"
     id="path42"
     inkscape:connector-curvature="0"
     style="opacity:0.28000004;fill:#ffffff;filter:url(#filter4481)" />
  <path
     d="m 408.33148,235.04391 c -10.60977,2.41604 -18.16519,12.22525 -18.59899,23.11366 -22.70214,5.50464 -41.45651,15.86491 -50.55465,26.85061 -3.6346,-1.8881 -7.80534,-2.54409 -12.0336,-1.58116 -10.74834,2.44745 -17.78646,14.38734 -15.71916,26.65121 0.24789,1.47079 0.61732,2.87874 1.09113,4.21535 -14.80832,10.52279 -23.24762,23.36127 -21.26288,35.13516 3.494,20.72774 37.97311,30.3465 76.96712,21.46684 1.14533,-0.26069 2.28332,-0.53273 3.41054,-0.81917 -0.0111,2.71447 0.20988,5.51641 0.68661,8.34454 2.9699,17.61841 14.71256,29.78629 26.21081,27.16802 5.85615,-1.33357 10.51656,-6.24853 13.29624,-13.07822 4.97533,3.51421 10.88187,4.97102 16.84031,3.61413 9.63229,-2.19331 16.76869,-11.14474 18.95172,-22.2415 9.81927,0.5059 20.53988,-0.39834 31.59031,-2.91472 39.99384,-9.1072 69.1894,-35.83958 65.17131,-59.67641 -2.87856,-17.07651 -22.02629,-28.05415 -47.36049,-29.55919 2.77089,-5.18111 3.91767,-10.62466 3.02606,-15.91398 -2.94077,-17.44563 -26.93581,-26.67587 -53.55674,-20.61386 -4.58427,1.04386 -8.9411,2.47276 -13.01102,4.21383 -3.58977,-10.57885 -14.13742,-16.88171 -25.14463,-14.37514 z"
     transform="matrix(0.74106,0,0,0.70003,294.27773,-186.53151)"
     id="path44"
     inkscape:connector-curvature="0"
     style="opacity:0.28000004;fill:#ffffff;filter:url(#filter4481)" />
  <path
     d="m 261.9029,385.75819 c -10.60977,2.41604 -18.16519,12.22525 -18.59899,23.11366 -22.70214,5.50464 -41.45651,15.86491 -50.55465,26.85061 -3.6346,-1.8881 -7.80534,-2.54409 -12.0336,-1.58116 -10.74834,2.44745 -17.78646,14.38734 -15.71916,26.65121 0.24789,1.47079 0.61732,2.87874 1.09113,4.21535 -14.80832,10.52279 -23.24762,23.36127 -21.26288,35.13516 3.494,20.72774 37.97311,30.3465 76.96712,21.46684 1.14533,-0.26069 2.28332,-0.53273 3.41054,-0.81917 -0.0111,2.71447 0.20988,5.51641 0.68661,8.34454 2.9699,17.61841 14.71256,29.78629 26.21081,27.16802 5.85615,-1.33357 10.51656,-6.24853 13.29624,-13.07822 4.97533,3.51421 10.88187,4.97102 16.84031,3.61413 9.63229,-2.19331 16.76869,-11.14474 18.95172,-22.2415 9.81927,0.5059 20.53988,-0.39834 31.59031,-2.91472 39.99384,-9.1072 69.1894,-35.83958 65.17131,-59.67641 -2.87856,-17.07651 -22.02629,-28.05415 -47.36049,-29.55919 2.77089,-5.18111 3.91767,-10.62466 3.02606,-15.91398 -2.94077,-17.44563 -26.93581,-26.67587 -53.55674,-20.61386 -4.58427,1.04386 -8.9411,2.47276 -13.01102,4.21383 -3.58977,-10.57885 -14.13742,-16.88171 -25.14463,-14.37514 z"
     transform="matrix(0.68477,0,0,0.60005,119.49773,416.47982)"
     id="path46"
     inkscape:connector-curvature="0"
     style="opacity:0.28000004;fill:#ffffff;filter:url(#filter4481)" />
</svg>
